# xmcd
#
# Track frame offsets: 
#        150
#        13379
#        27257
#        41069
#        53839
#        69252
#        83210
#        96661
#        110159
#        124706
#        138681
#        152651
#        165470
#        178360
#        193061
#        206002
#        221403
#        234963
#        248411
#        262808
#        276326
#
# Disc length: 3856 seconds
#
# Revision: 0
# Processed by: cddbd v1.5.2PL0 Copyright (c) Steve Scherf et al.
# Submitted via: ExactAudioCopy v0.99pb4
#
DISCID=340f0e15
DTITLE=Josh White - Blues Singer 1932-1936
DYEAR=2008
DGENRE=Blues
TTITLE0=New Milk Cow Blues
TTITLE1=Milk Cow Blues
TTITLE2=Black Man
TTITLE3=Friendless City Blues
TTITLE4=Lord, I Want To Die Easy
TTITLE5=Did You Read That Letter?
TTITLE6=My Father Is A Husbandman
TTITLE7=Paul And Silas Bound In Jail
TTITLE8=Black And Evil Blues
TTITLE9=Howling Wolf Blues
TTITLE10=Greenville Sheik
TTITLE11=Double Crossing Woman
TTITLE12=Lazy Black Snake Blues
TTITLE13=Downhearted Man Blues
TTITLE14=Low Cotton
TTITLE15=Welfare Blues
TTITLE16=Stormy Weather No.1
TTITLE17=Silicosis Is Killing Me
TTITLE18=Badly Mistreated Man
TTITLE19=Bed Spring Blues
TTITLE20=I Believe I'll Make A Change (Bonus Track)
EXTD=
EXTT0=
EXTT1=
EXTT2=
EXTT3=
EXTT4=
EXTT5=
EXTT6=
EXTT7=
EXTT8=
EXTT9=
EXTT10=
EXTT11=
EXTT12=
EXTT13=
EXTT14=
EXTT15=
EXTT16=
EXTT17=
EXTT18=
EXTT19=
EXTT20=
PLAYORDER=
